<svg xmlns="http://www.w3.org/2000/svg" xmlns:xlink="http://www.w3.org/1999/xlink" width="250" zoomAndPan="magnify" viewBox="0 0 187.5 56.249996" height="75" preserveAspectRatio="xMidYMid meet" version="1.0"><defs><filter x="0%" y="0%" width="100%" height="100%" id="f983956b93"><feColorMatrix values="0 0 0 0 1 0 0 0 0 1 0 0 0 0 1 0 0 0 1 0" color-interpolation-filters="sRGB"/></filter><g/><clipPath id="440f29e304"><path d="M 0.988281 0 L 186.019531 0 L 186.019531 55.511719 L 0.988281 55.511719 Z M 0.988281 0 " clip-rule="nonzero"/></clipPath><clipPath id="f821c61cf2"><path d="M 62 0 L 119 0 L 119 55.511719 L 62 55.511719 Z M 62 0 " clip-rule="nonzero"/></clipPath><mask id="bda6fe4917"><g filter="url(#f983956b93)"><rect x="-18.75" width="225" fill="#000000" y="-5.625" height="67.499996" fill-opacity="0.28"/></g></mask><clipPath id="9f5e3e59d5"><path d="M 0.945312 0 L 56.453125 0 L 56.453125 55.511719 L 0.945312 55.511719 Z M 0.945312 0 " clip-rule="nonzero"/></clipPath><clipPath id="56fa80f702"><rect x="0" width="57" y="0" height="56"/></clipPath><clipPath id="36bd9ade8e"><rect x="0" width="178" y="0" height="42"/></clipPath></defs><g clip-path="url(#440f29e304)"><path fill="#ffffff" d="M 0.988281 0 L 186.019531 0 L 186.019531 55.511719 L 0.988281 55.511719 Z M 0.988281 0 " fill-opacity="1" fill-rule="nonzero"/><path fill="#ffffff" d="M 0.988281 0 L 186.019531 0 L 186.019531 55.511719 L 0.988281 55.511719 Z M 0.988281 0 " fill-opacity="1" fill-rule="nonzero"/></g><g clip-path="url(#f821c61cf2)"><g mask="url(#bda6fe4917)"><g transform="matrix(1, 0, 0, 1, 62, 0.000000000000004134)"><g clip-path="url(#56fa80f702)"><g clip-path="url(#9f5e3e59d5)"><path fill="#cb6ce6" d="M 56.226562 25.621094 C 56.230469 25.601562 56.226562 25.582031 56.21875 25.5625 C 56.21875 25.5625 56.21875 25.558594 56.21875 25.558594 L 50.707031 11.082031 C 50.707031 11.082031 50.703125 11.082031 50.703125 11.078125 C 50.695312 11.058594 50.679688 11.035156 50.664062 11.023438 L 38.542969 1.378906 C 38.523438 1.363281 38.5 1.351562 38.472656 1.347656 C 38.472656 1.347656 38.46875 1.347656 38.46875 1.347656 L 28.574219 0 C 28.554688 0 28.535156 0 28.515625 0.00390625 L 23.800781 1.347656 L 23.667969 1.347656 C 23.640625 1.347656 23.613281 1.351562 23.59375 1.367188 C 23.589844 1.367188 23.589844 1.367188 23.589844 1.367188 L 23.472656 1.4375 L 11.863281 4.738281 C 11.863281 4.738281 11.859375 4.742188 11.855469 4.742188 C 11.839844 4.75 11.824219 4.757812 11.8125 4.769531 C 11.808594 4.773438 11.800781 4.777344 11.796875 4.78125 C 11.796875 4.785156 11.792969 4.785156 11.789062 4.789062 L 1.625 17.984375 C 1.621094 17.988281 1.621094 17.992188 1.621094 17.996094 C 1.617188 18.003906 1.613281 18.007812 1.609375 18.015625 C 1.605469 18.019531 1.605469 18.023438 1.605469 18.027344 C 1.601562 18.035156 1.601562 18.042969 1.601562 18.050781 C 1.597656 18.054688 1.597656 18.0625 1.597656 18.066406 L 0.957031 29.671875 C 0.957031 29.679688 0.957031 29.691406 0.957031 29.703125 L 1.894531 35.570312 C 1.894531 35.578125 1.902344 35.585938 1.902344 35.59375 C 1.902344 35.597656 1.902344 35.601562 1.90625 35.605469 C 1.90625 35.609375 1.90625 35.609375 1.910156 35.609375 C 1.910156 35.613281 1.910156 35.613281 1.910156 35.617188 L 6.640625 44.628906 C 6.648438 44.644531 6.660156 44.660156 6.675781 44.671875 L 12.222656 49.578125 C 12.234375 49.589844 12.242188 49.597656 12.253906 49.605469 L 18.671875 53.929688 C 18.6875 53.941406 18.710938 53.949219 18.730469 53.953125 L 28.796875 55.519531 L 28.800781 55.519531 C 28.808594 55.519531 28.816406 55.519531 28.824219 55.519531 C 28.835938 55.519531 28.84375 55.519531 28.855469 55.519531 C 28.855469 55.519531 28.855469 55.519531 28.855469 55.515625 C 28.855469 55.515625 28.859375 55.515625 28.859375 55.515625 C 28.863281 55.515625 28.863281 55.515625 28.863281 55.515625 L 45.316406 50.707031 C 45.324219 50.703125 45.328125 50.699219 45.332031 50.695312 C 45.347656 50.6875 45.359375 50.679688 45.375 50.667969 C 45.378906 50.660156 45.386719 50.660156 45.390625 50.65625 L 55.402344 37.453125 C 55.417969 37.429688 55.425781 37.40625 55.425781 37.382812 C 55.425781 37.378906 55.429688 37.378906 55.429688 37.375 Z M 55.148438 37.25 L 50.820312 38.34375 L 55.878906 26.457031 Z M 37.582031 35.566406 L 21.632812 29.953125 L 33.660156 21.285156 Z M 33.664062 20.820312 L 21.664062 12.96875 L 37.265625 8.507812 Z M 33.492188 21.054688 L 21.464844 29.714844 L 21.464844 13.1875 Z M 21.175781 29.765625 L 7.53125 23.066406 L 21.175781 13.203125 Z M 24.132812 45.824219 L 11.121094 38.535156 L 21.222656 30.265625 Z M 21.507812 30.214844 L 37.496094 35.84375 L 24.429688 45.84375 Z M 37.671875 36.074219 L 38.511719 48.035156 L 24.691406 46.007812 Z M 37.855469 35.464844 L 33.941406 21.210938 L 47.25 22.542969 Z M 47.4375 22.78125 L 50.390625 38.367188 L 38.042969 35.699219 Z M 50.625 38.058594 L 47.707031 22.648438 L 55.890625 25.695312 Z M 47.457031 22.089844 L 37.8125 8.515625 L 50.390625 11.246094 Z M 47.214844 22.246094 L 33.933594 20.921875 L 37.53125 8.621094 Z M 21.511719 12.714844 L 23.769531 1.703125 L 37.078125 8.257812 Z M 21.210938 12.730469 L 11.003906 9.316406 L 23.457031 1.785156 Z M 21.007812 12.964844 L 7.484375 22.738281 L 10.765625 9.539062 Z M 7.167969 22.816406 L 1.953125 18.070312 L 10.398438 9.8125 Z M 10.53125 9.277344 L 3.113281 16.53125 L 11.566406 5.554688 Z M 7.074219 23.125 L 2.171875 34.855469 L 1.890625 18.40625 Z M 7.210938 23.558594 L 10.664062 38.335938 L 2.230469 35.460938 Z M 7.460938 23.351562 L 21.054688 30.027344 L 10.953125 38.296875 Z M 23.953125 46.058594 L 12.453125 49.296875 L 11.046875 38.824219 Z M 24.253906 46.273438 L 28.539062 55.121094 L 12.808594 49.5 Z M 28.878906 55.15625 L 24.582031 46.285156 L 38.296875 48.296875 Z M 38.796875 47.914062 L 37.953125 35.976562 L 50.246094 38.632812 Z M 50.199219 39.046875 L 45.199219 50.382812 L 38.960938 48.152344 Z M 50.675781 38.679688 L 54.921875 37.605469 L 45.90625 49.496094 Z M 47.691406 22.332031 L 50.59375 11.605469 L 55.832031 25.363281 Z M 38.558594 1.761719 L 49.996094 10.863281 L 37.640625 8.183594 Z M 28.566406 0.292969 L 36.308594 1.347656 L 24.859375 1.347656 Z M 38.28125 1.636719 L 37.363281 8.078125 L 24.289062 1.636719 Z M 10.898438 9.039062 L 12.023438 4.996094 L 22.53125 2.007812 Z M 1.246094 29.671875 L 1.664062 22.09375 L 1.859375 33.503906 Z M 6.886719 44.472656 L 3.046875 37.15625 L 11.398438 48.464844 Z M 2.429688 35.835938 L 10.734375 38.664062 L 12.113281 48.941406 Z M 13.367188 50.003906 L 27.335938 54.996094 L 18.804688 53.671875 Z M 38.695312 48.363281 L 44.808594 50.554688 L 29.582031 55.003906 Z M 38.695312 48.363281 " fill-opacity="1" fill-rule="nonzero"/></g></g></g></g></g><g transform="matrix(1, 0, 0, 1, 4, 0.000000000000004134)"><g clip-path="url(#36bd9ade8e)"><g fill="#404041" fill-opacity="1"><g transform="translate(1.522765, 36.873564)"><g><path d="M 5.734375 -17.75 L 11.03125 -17.75 L 11.03125 -0.3125 C 11.03125 -0.101562 10.890625 0 10.609375 0 L 6.125 0 C 5.863281 0 5.734375 -0.101562 5.734375 -0.3125 Z M 0.375 -23.078125 C 0.125 -23.078125 0 -23.179688 0 -23.390625 L 0 -27.53125 C 0 -27.738281 0.125 -27.84375 0.375 -27.84375 L 16.359375 -27.84375 C 16.609375 -27.84375 16.734375 -27.738281 16.734375 -27.53125 L 16.734375 -23.390625 C 16.734375 -23.179688 16.609375 -23.078125 16.359375 -23.078125 Z M 0.375 -23.078125 "/></g></g></g><g fill="#404041" fill-opacity="1"><g transform="translate(19.089761, 36.873564)"><g><path d="M 13.21875 -5.1875 L 13.21875 0 L 0.375 0 C 0.125 0 0 -0.101562 0 -0.3125 L 0 -27.53125 C 0 -27.738281 0.125 -27.84375 0.375 -27.84375 L 13.21875 -27.84375 L 13.21875 -22.796875 L 5.328125 -22.796875 L 5.328125 -16.5 L 16.25 -16.5 C 16.507812 -16.5 16.640625 -16.394531 16.640625 -16.1875 L 16.640625 -11.765625 C 16.640625 -11.554688 16.507812 -11.453125 16.25 -11.453125 L 5.328125 -11.453125 L 5.328125 -5.1875 Z M 13.21875 -5.1875 "/></g></g></g><g fill="#404041" fill-opacity="1"><g transform="translate(36.552409, 36.873564)"><g><path d="M 15.90625 -5.109375 L 21.21875 -5.109375 L 21.21875 -0.3125 C 21.21875 -0.101562 21.09375 0 20.84375 0 L 16.3125 0 C 14.925781 0 13.476562 -0.101562 11.96875 -0.3125 C 10.457031 -0.519531 8.992188 -0.90625 7.578125 -1.46875 C 6.171875 -2.039062 4.890625 -2.84375 3.734375 -3.875 C 2.585938 -4.90625 1.675781 -6.238281 1 -7.875 C 0.332031 -9.507812 0 -11.523438 0 -13.921875 C 0 -16.378906 0.335938 -18.441406 1.015625 -20.109375 C 1.703125 -21.785156 2.617188 -23.132812 3.765625 -24.15625 C 4.921875 -25.175781 6.210938 -25.953125 7.640625 -26.484375 C 9.066406 -27.015625 10.523438 -27.375 12.015625 -27.5625 C 13.515625 -27.75 14.945312 -27.84375 16.3125 -27.84375 L 20.84375 -27.84375 C 21.09375 -27.84375 21.21875 -27.738281 21.21875 -27.53125 L 21.21875 -16.59375 L 15.90625 -16.59375 L 15.90625 -22.75 C 13.882812 -22.875 12.078125 -22.648438 10.484375 -22.078125 C 8.898438 -21.503906 7.648438 -20.550781 6.734375 -19.21875 C 5.816406 -17.882812 5.359375 -16.117188 5.359375 -13.921875 C 5.359375 -12.203125 5.609375 -10.785156 6.109375 -9.671875 C 6.609375 -8.554688 7.269531 -7.6875 8.09375 -7.0625 C 8.914062 -6.4375 9.800781 -5.976562 10.75 -5.6875 C 11.695312 -5.394531 12.625 -5.21875 13.53125 -5.15625 C 14.4375 -5.101562 15.226562 -5.085938 15.90625 -5.109375 Z M 15.90625 -5.109375 "/></g></g></g><g fill="#404041" fill-opacity="1"><g transform="translate(58.850322, 36.873564)"><g><path d="M 5.328125 -15.765625 L 0 -15.765625 L 0 -27.53125 C 0 -27.738281 0.125 -27.84375 0.375 -27.84375 L 4.9375 -27.84375 C 5.195312 -27.84375 5.328125 -27.738281 5.328125 -27.53125 Z M 20.8125 -27.84375 C 21.0625 -27.84375 21.1875 -27.738281 21.1875 -27.53125 L 21.1875 -0.3125 C 21.1875 -0.101562 21.0625 0 20.8125 0 L 16.25 0 C 16 0 15.875 -0.101562 15.875 -0.3125 L 15.875 -5.21875 L 5.328125 -5.21875 L 5.328125 -0.3125 C 5.328125 -0.101562 5.195312 0 4.9375 0 L 0.375 0 C 0.125 0 0 -0.101562 0 -0.3125 L 0 -10.4375 L 5.328125 -10.4375 L 5.328125 -10.40625 L 15.875 -10.40625 L 15.875 -27.53125 C 15.875 -27.738281 16 -27.84375 16.25 -27.84375 Z M 20.8125 -27.84375 "/></g></g></g><g fill="#404041" fill-opacity="1"><g transform="translate(81.113452, 36.873564)"><g/></g></g><g fill="#404041" fill-opacity="1"><g transform="translate(89.809993, 36.873564)"><g><path d="M 16.28125 -5.15625 C 16.539062 -5.15625 16.671875 -5.050781 16.671875 -4.84375 L 16.671875 -0.3125 C 16.671875 -0.101562 16.53125 0 16.25 0 L 0.453125 0 C 0.078125 0 -0.0507812 -0.148438 0.0625 -0.453125 L 1.984375 -5.15625 Z M 0.375 -22.65625 C 0.125 -22.65625 0 -22.769531 0 -23 L 0 -27.53125 C 0 -27.738281 0.125 -27.84375 0.375 -27.84375 L 16.21875 -27.84375 C 16.539062 -27.84375 16.664062 -27.691406 16.59375 -27.390625 L 9.8125 -10.46875 L 4.109375 -10.46875 L 8.984375 -22.65625 Z M 0.375 -22.65625 "/></g></g></g><g fill="#404041" fill-opacity="1"><g transform="translate(107.307423, 36.873564)"><g><path d="M 16 -13.84375 C 16 -13.125 15.75 -12.507812 15.25 -12 C 14.757812 -11.488281 14.140625 -11.234375 13.390625 -11.234375 C 12.671875 -11.234375 12.054688 -11.488281 11.546875 -12 C 11.035156 -12.507812 10.78125 -13.125 10.78125 -13.84375 C 10.78125 -14.59375 11.035156 -15.222656 11.546875 -15.734375 C 12.054688 -16.242188 12.671875 -16.5 13.390625 -16.5 C 14.140625 -16.5 14.757812 -16.242188 15.25 -15.734375 C 15.75 -15.222656 16 -14.59375 16 -13.84375 Z M 26.796875 -13.953125 C 26.796875 -12.210938 26.515625 -10.515625 25.953125 -8.859375 C 25.398438 -7.203125 24.566406 -5.703125 23.453125 -4.359375 C 22.335938 -3.023438 20.941406 -1.960938 19.265625 -1.171875 C 17.597656 -0.390625 15.65625 0 13.4375 0 C 11.1875 0 9.21875 -0.390625 7.53125 -1.171875 C 5.851562 -1.960938 4.457031 -3.023438 3.34375 -4.359375 C 2.226562 -5.703125 1.390625 -7.203125 0.828125 -8.859375 C 0.273438 -10.515625 0 -12.210938 0 -13.953125 C 0 -15.691406 0.273438 -17.382812 0.828125 -19.03125 C 1.390625 -20.675781 2.226562 -22.160156 3.34375 -23.484375 C 4.457031 -24.804688 5.851562 -25.863281 7.53125 -26.65625 C 9.21875 -27.445312 11.1875 -27.84375 13.4375 -27.84375 C 15.65625 -27.84375 17.597656 -27.445312 19.265625 -26.65625 C 20.941406 -25.863281 22.335938 -24.804688 23.453125 -23.484375 C 24.566406 -22.160156 25.398438 -20.675781 25.953125 -19.03125 C 26.515625 -17.382812 26.796875 -15.691406 26.796875 -13.953125 Z M 21.578125 -13.84375 C 21.578125 -14.976562 21.398438 -16.085938 21.046875 -17.171875 C 20.703125 -18.253906 20.191406 -19.226562 19.515625 -20.09375 C 18.847656 -20.96875 18.003906 -21.660156 16.984375 -22.171875 C 15.960938 -22.679688 14.78125 -22.9375 13.4375 -22.9375 C 12.0625 -22.9375 10.863281 -22.679688 9.84375 -22.171875 C 8.820312 -21.660156 7.96875 -20.96875 7.28125 -20.09375 C 6.601562 -19.226562 6.09375 -18.253906 5.75 -17.171875 C 5.414062 -16.085938 5.25 -14.976562 5.25 -13.84375 C 5.25 -12.726562 5.414062 -11.640625 5.75 -10.578125 C 6.09375 -9.515625 6.601562 -8.550781 7.28125 -7.6875 C 7.96875 -6.832031 8.820312 -6.148438 9.84375 -5.640625 C 10.863281 -5.128906 12.0625 -4.875 13.4375 -4.875 C 14.78125 -4.875 15.960938 -5.128906 16.984375 -5.640625 C 18.003906 -6.148438 18.847656 -6.832031 19.515625 -7.6875 C 20.191406 -8.550781 20.703125 -9.515625 21.046875 -10.578125 C 21.398438 -11.640625 21.578125 -12.726562 21.578125 -13.84375 Z M 21.578125 -13.84375 "/></g></g></g><g fill="#404041" fill-opacity="1"><g transform="translate(135.414621, 36.873564)"><g><path d="M 23.03125 -27.84375 C 23.289062 -27.84375 23.421875 -27.738281 23.421875 -27.53125 L 23.421875 -0.3125 C 23.421875 -0.101562 23.289062 0 23.03125 0 L 18.4375 0 C 18.414062 0 18.363281 -0.0078125 18.28125 -0.03125 C 18.195312 -0.0507812 18.144531 -0.078125 18.125 -0.109375 L 5.328125 -18.4375 L 5.328125 -6.6875 L 0 -6.6875 L 0 -27.53125 C 0 -27.738281 0.113281 -27.84375 0.34375 -27.84375 L 4.96875 -27.84375 C 5.019531 -27.84375 5.078125 -27.832031 5.140625 -27.8125 C 5.210938 -27.800781 5.265625 -27.773438 5.296875 -27.734375 L 18.125 -9.390625 L 18.125 -27.53125 C 18.125 -27.738281 18.265625 -27.84375 18.546875 -27.84375 Z M 23.03125 -27.84375 "/></g></g></g><g fill="#404041" fill-opacity="1"><g transform="translate(160.008427, 36.873564)"><g><path d="M 13.21875 -5.1875 L 13.21875 0 L 0.375 0 C 0.125 0 0 -0.101562 0 -0.3125 L 0 -27.53125 C 0 -27.738281 0.125 -27.84375 0.375 -27.84375 L 13.21875 -27.84375 L 13.21875 -22.796875 L 5.328125 -22.796875 L 5.328125 -16.5 L 16.25 -16.5 C 16.507812 -16.5 16.640625 -16.394531 16.640625 -16.1875 L 16.640625 -11.765625 C 16.640625 -11.554688 16.507812 -11.453125 16.25 -11.453125 L 5.328125 -11.453125 L 5.328125 -5.1875 Z M 13.21875 -5.1875 "/></g></g></g></g></g></svg>